<svg xmlns="http://www.w3.org/2000/svg" xmlns:xlink="http://www.w3.org/1999/xlink" viewBox="0 0 500 500"><defs><clipPath id="freepik--clip-path--inject-1--inject-379"><path d="M235.9,290.09s3.24,19.47,1.21,31.24-4.46,14.6-6.89,22.3-2.43,17.44-2.43,17.44l7.76.82s10.08-23.12,10.89-42.19-2.84-30.42-2.84-30.42Z" style="fill:#fff;stroke:#263238;stroke-miterlimit:10"></path></clipPath><clipPath id="freepik--clip-path-2--inject-1--inject-379"><path d="M231.56,288.74a55.68,55.68,0,0,1,5.72,18.76c1.08,10.34,1.9,19.58-1.09,26.11s-4.63,16.05-4.08,20.13a73.46,73.46,0,0,0,1.63,8.15L250.33,363s2.72-19.31,7.62-30.46,6.79-30.46,6.79-38.34a86.06,86.06,0,0,0-.54-11.43l-34.27,1.91Z" style="fill:#fff;stroke:#263238;stroke-miterlimit:10"></path></clipPath><clipPath id="freepik--clip-path-3--inject-1--inject-379"><path d="M253.45,141.05a37.74,37.74,0,0,1,6.24,4.35c1.9,1.89,2.65,4.54,4,5.48s5.48,1.52,5.48,2.27-1.7,3-1.7,3,1.7,6.62,2.27,8.51.95,4-.76,4.92a16.26,16.26,0,0,1-7.94,2.08l-4.16.19v8.32c0,3.78,1.7,11.54,1.7,11.54L247,185.88s.57-6.62.57-9.27a73.46,73.46,0,0,0-.76-7.76s-6.05-.75-5.48-4.92c.49-3.64,4-2.46,5.1-2.46h1.14s-.38-3.4.57-5.1,4.54-3.22,5.1-6.81A44.46,44.46,0,0,0,253.45,141.05Z" style="fill:#fff;stroke:#263238;stroke-miterlimit:10"></path></clipPath></defs><g id="freepik--Plants--inject-1--inject-379"><path d="M94.34,190.64s-3.13-2.43.69-7.63,10.76-6.95,10.07-2.78S101.63,192.73,94.34,190.64Z" style="fill:#009688"></path><path d="M99.2,184.05a133,133,0,0,0-9.38,13.19" style="fill:#009688;stroke:#263238;stroke-linecap:round;stroke-linejoin:round"></path><path d="M373.2,256.56s-1.41-3.7,4.56-6.16,12.81-.33,10.05,2.86S378.34,262.13,373.2,256.56Z" style="fill:#009688"></path><path d="M380.78,253.45a134.94,134.94,0,0,0-14.87,6.39" style="fill:#009688;stroke:#263238;stroke-linecap:round;stroke-linejoin:round"></path><path d="M437.72,349.56s-4-.1-4-6.56,4.52-12,6.44-8.21S444.82,346.9,437.72,349.56Z" style="fill:#009688"></path><path d="M437.71,341.37a134.59,134.59,0,0,0,.3,16.17" style="fill:#009688;stroke:#263238;stroke-linecap:round;stroke-linejoin:round"></path><path d="M189.52,282s3.29-2.21,7,3.05,3.22,12.39-.52,10.43S185.26,288.21,189.52,282Z" style="fill:#009688"></path><path d="M194.26,288.63a134.3,134.3,0,0,0-9.58-13" style="fill:#009688;stroke:#263238;stroke-linecap:round;stroke-linejoin:round"></path><path d="M63.8,162.7A32.61,32.61,0,0,1,68,154.2c2.78-3.91,10.9-1.54,10.9-1.54,2.22.15,1.43,12.48-5.7,14.38-3,.81,1.23,1.79,4,1.23s8.93,1.12,6.7,4.47S75.51,180,72.16,180A18.34,18.34,0,0,1,61,176.64C57.1,173.85,53.76,166,53.76,161S58.78,152.1,63.8,162.7Z" style="fill:#009688"></path><path d="M69,164.26S58.93,177.11,57.19,183" style="fill:#009688;stroke:#263238;stroke-linecap:round;stroke-linejoin:round"></path><path d="M338.05,165.33a32.85,32.85,0,0,1-4.13-8.51c-1.35-4.61,5.52-9.53,5.52-9.53,1.48-1.66,10.71,6.57,7.81,13.35-1.25,2.9,2.17.14,3.45-2.4s6.38-6.34,7.64-2.52.54,11.06-1.52,13.7a18.32,18.32,0,0,1-9.52,6.71c-4.6,1.35-12.81-.83-16.76-3.93S326.61,162.75,338.05,165.33Z" style="fill:#009688"></path><path d="M342.49,162.21s3.9,15.84,7.47,20.85" style="fill:none;stroke:#263238;stroke-linecap:round;stroke-linejoin:round"></path><path d="M442.72,286.67a32.65,32.65,0,0,1-4.13-8.52c-1.35-4.6,5.51-9.53,5.51-9.53,1.49-1.65,10.71,6.57,7.81,13.36-1.24,2.9,2.17.13,3.45-2.41s6.39-6.33,7.65-2.51.54,11.05-1.52,13.69a18.4,18.4,0,0,1-9.52,6.71c-4.6,1.36-12.81-.83-16.76-3.92S431.28,284.08,442.72,286.67Z" style="fill:#009688"></path><path d="M447.16,283.54s3.9,15.85,7.47,20.85" style="fill:#009688;stroke:#263238;stroke-linecap:round;stroke-linejoin:round"></path><path d="M201.63,101.54a32.68,32.68,0,0,1,9,2.79c4.29,2.14,3.22,10.52,3.22,10.52.19,2.22-12.11,3.36-15.1-3.39-1.27-2.88-1.58,1.5-.59,4.17s.28,9-3.37,7.31-8.46-7.14-9-10.45A18.34,18.34,0,0,1,187.42,101c2.15-4.29,9.34-8.81,14.3-9.59S211.32,94.93,201.63,101.54Z" style="fill:#009688"></path><path d="M200.89,106.92s-14.25-8-20.35-8.75" style="fill:#009688;stroke:#263238;stroke-linecap:round;stroke-linejoin:round"></path><path d="M138.89,327.73a22.06,22.06,0,0,1,6.14,1.89c2.92,1.46,2.19,7.15,2.19,7.15.13,1.51-8.23,2.28-10.26-2.3-.87-2-1.07,1-.4,2.83s.19,6.11-2.29,5-5.75-4.85-6.1-7.09a12.4,12.4,0,0,1,1.06-7.84c1.46-2.92,6.35-6,9.72-6.52S145.47,323.24,138.89,327.73Z" style="fill:#009688"></path><path d="M138.39,331.38s-9.69-5.4-13.83-5.94" style="fill:#009688;stroke:#263238;stroke-linecap:round;stroke-linejoin:round"></path><path d="M62.69,267.46A22.29,22.29,0,0,1,68,263.79c3-1.39,7,2.7,7,2.7,1.27.82-3.28,7.88-8.14,6.65-2.08-.53.14,1.47,2,2.06s4.93,3.62,2.49,4.87-7.36,1.53-9.35.42a12.48,12.48,0,0,1-5.51-5.68c-1.39-2.94-.79-8.69.87-11.67S63.22,259.51,62.69,267.46Z" style="fill:#009688"></path><path d="M65.26,270.11S55,274.4,52.05,277.33" style="fill:#009688;stroke:#263238;stroke-linecap:round;stroke-linejoin:round"></path><path d="M436.89,158.39a22.28,22.28,0,0,1,6.14,1.9c2.92,1.46,2.19,7.15,2.19,7.15.13,1.51-8.23,2.28-10.26-2.3-.87-2-1.07,1-.4,2.83s.19,6.11-2.29,5-5.75-4.85-6.1-7.1a12.42,12.42,0,0,1,1.06-7.84c1.46-2.91,6.35-6,9.72-6.51S443.47,153.9,436.89,158.39Z" style="fill:#009688"></path><path d="M436.39,162.05s-9.69-5.4-13.83-5.94" style="fill:#009688;stroke:#263238;stroke-linecap:round;stroke-linejoin:round"></path><path d="M84.13,142.43s6.47-2.59,18.12,0,22.65,11,40.13,13.6,28.48-3.24,30.42-12.95-7.12-11-13-6.47,0,12.3,0,12.3" style="fill:none;stroke:#263238;stroke-linecap:round;stroke-linejoin:round;stroke-width:0.75px;stroke-dasharray:2"></path><path d="M139.14,162.5s8.42,3.23,22.66,0,15.53-19.42,26.53-27.83,20.07.64,20.07,8.41-5.83,9.06-11.65,9.06" style="fill:none;stroke:#263238;stroke-linecap:round;stroke-linejoin:round;stroke-width:0.75px;stroke-dasharray:2"></path><path d="M301.72,312.67s8.41-3.88,19.42,6.47,23.95,22,41.42,20.71S387.16,323,402,319.79s22,5.82,22,11.65-9.71,13.59-14.89,7.77" style="fill:none;stroke:#263238;stroke-linecap:round;stroke-linejoin:round;stroke-width:0.75px;stroke-dasharray:2"></path><path d="M281,325.61s21.36-6.47,32.36,2.59,20.71,22.66,36.89,22.66" style="fill:none;stroke:#263238;stroke-linecap:round;stroke-linejoin:round;stroke-width:0.75px;stroke-dasharray:2"></path></g></svg>